<svg width="95" height="95" viewBox="0 0 95 95" fill="none" xmlns="http://www.w3.org/2000/svg">
<path d="M-2.07629e-06 47.5C-3.22153e-06 73.7 21.3 95 47.5 95C73.7 95 95 73.7 95 47.5C95 21.3 73.7 -9.31053e-07 47.5 -2.07629e-06C21.3 -3.22153e-06 -9.31053e-07 21.3 -2.07629e-06 47.5ZM88.2 47.5C88.2 69.9 70 88.2 47.5 88.2C25 88.2 6.8 69.9 6.8 47.5C6.8 25.1 25.1 6.8 47.5 6.8C69.9 6.8 88.2 25.1 88.2 47.5Z" fill="url(#paint0_linear_1_3)"/>
<path d="M34 45.1C33.4 45.7 33 46.6 33 47.5C33 48.4 33.4 49.3 34 49.9L52.3 68.2C53.6 69.5 55.8 69.5 57.1 68.2C58.4 66.9 58.4 64.7 57.1 63.4L41.3 47.5L57.1 31.7C57.8 31 58.1 30.2 58.1 29.3C58.1 28.4 57.8 27.5 57.1 26.9C55.8 25.6 53.6 25.6 52.3 26.9L34 45.1Z" fill="url(#paint1_linear_1_3)"/>
<defs>
<linearGradient id="paint0_linear_1_3" x1="-2.07629e-06" y1="47.5" x2="95" y2="47.5" gradientUnits="userSpaceOnUse">
<stop stop-color="#EC4899"/>
<stop offset="1" stop-color="#3B82F6"/>
</linearGradient>
<linearGradient id="paint1_linear_1_3" x1="33" y1="47.55" x2="58.1" y2="47.55" gradientUnits="userSpaceOnUse">
<stop stop-color="#EC4899"/>
<stop offset="1" stop-color="#3B82F6"/>
</linearGradient>
</defs>
</svg>
